# xmcd
#
# Track frame offsets: 
#        150
#        13740
#        30716
#        44076
#        64096
#        83708
#        105893
#        129142
#        146205
#        160629
#
# Disc length: 2419 seconds
#
# Revision: 0
# Processed by: cddbd v1.5.2PL0 Copyright (c) Steve Scherf et al.
# Submitted via: ExactAudioCopyFreeDBPlugin 1.0
#
DISCID=7a09710a
DTITLE=Rachel Stacy - Rachel Stacy
DYEAR=2008
DGENRE=Country
TTITLE0=That's Love
TTITLE1=Oklahoma
TTITLE2=Black Beyonder
TTITLE3=What If
TTITLE4=Strong Girl
TTITLE5=Tiara
TTITLE6=Draw The Line
TTITLE7=Closer
TTITLE8=Damn You Look Good
TTITLE9=Please
EXTD=
EXTT0=
EXTT1=
EXTT2=
EXTT3=
EXTT4=
EXTT5=
EXTT6=
EXTT7=
EXTT8=
EXTT9=
PLAYORDER=
